Coordinates
version=1
nRows=16
nColumns=36
inDegrees=yes

Units are S.I. units (second, meters, Newtons, ...)
If the header above contains a line with 'inDegrees', this indicates whether rotational values are in degrees (yes) or radians (no).

endheader
time	pelvis_tilt	pelvis_list	pelvis_rotation	pelvis_tx	pelvis_ty	pelvis_tz	hip_flexion_r	hip_adduction_r	hip_rotation_r	knee_angle_r	knee_angle_r_beta	ankle_angle_r	subtalar_angle_r	mtp_angle_r	hip_flexion_l	hip_adduction_l	hip_rotation_l	knee_angle_l	knee_angle_l_beta	ankle_angle_l	subtalar_angle_l	mtp_angle_l	lumbar_extension	lumbar_bending	lumbar_rotation	arm_flex_r	arm_add_r	arm_rot_r	elbow_flex_r	pro_sup_r	arm_flex_l	arm_add_l	arm_rot_l	elbow_flex_l	pro_sup_l
      1.55000000	      2.06156707	      1.47220534	     14.59778169	     -0.14109565	      0.99656941	      0.34977798	     -3.48463125	     -1.60486588	     -7.65827154	      3.68299759	      0.06428043	     11.10899400	     -2.31961415	     -7.49999983	     -5.69419999	     -2.13690439	    -20.63851195	      5.61015693	      0.09791571	     10.34932713	      6.06600284	     -7.49999983	     -3.57219166	      0.26728193	     -3.72762296	     19.98384290	    -41.05161573	     72.75631984	     70.66864659	    100.26242762	    -11.88149618	    -47.10214254	     50.36308197	     82.83421859	     79.54472232
      1.56666670	      2.07228249	      1.46777529	     14.57675333	     -0.13796274	      0.99644497	      0.34796899	     -3.48440020	     -1.60078908	     -7.65845352	      3.68728430	      0.06435525	     11.11086773	     -2.32169539	     -7.49999983	     -5.70250421	     -2.13541769	    -20.63848750	      5.61141706	      0.09793770	     10.35148440	      6.06583734	     -7.49999983	     -3.57419249	      0.25541416	     -3.73793450	     19.98640788	    -41.04425064	     72.75541391	     70.66978222	    100.26455409	    -11.86781243	    -47.09988715	     50.35882668	     82.83320993	     79.54617268
      1.58333330	      2.06588960	      1.46645883	     14.59144718	     -0.14110845	      0.99676743	      0.34980113	     -3.47511120	     -1.59255888	     -7.65765200	      3.68637101	      0.06433931	     11.11139466	     -2.32183820	     -7.49999983	     -5.70597532	     -2.13442245	    -20.64081639	      5.60829906	      0.09788328	     10.35304430	      6.06469606	     -7.49999983	     -3.56773038	      0.25474912	     -3.73803661	     19.98446253	    -41.04580689	     72.75564656	     70.66987033	    100.26558360	    -11.87114948	    -47.09588524	     50.36116047	     82.83334273	     79.54702367
      1.60000000	      2.09271937	      1.44398499	     14.54004405	     -0.13805773	      0.99977229	      0.34791472	     -3.46522844	     -1.55841988	     -7.64290780	      3.73962934	      0.06526884	     11.13520519	     -2.34872520	     -7.49999984	     -5.74287429	     -2.13422001	    -20.69714646	      5.56480762	      0.09712422	     10.43016651	      6.01786308	     -7.49999984	     -3.54385401	      0.20406194	     -3.80038859	     20.02149579	    -40.94455872	     72.72640358	     70.66909197	    100.30513597	    -11.78480745	    -47.02192024	     50.35690128	     82.79663485	     79.57491756
      1.61666670	      2.08665956	      1.44419223	     14.55899409	     -0.14146035	      0.99983851	      0.34987170	     -3.44947838	     -1.54887285	     -7.64296589	      3.73538357	      0.06519474	     11.13587625	     -2.34928204	     -7.49999984	     -5.74916377	     -2.12402623	    -20.69823247	      5.56458580	      0.09712034	     10.43015128	      6.01743119	     -7.49999984	     -3.53959809	      0.21239976	     -3.79354448	     20.02058312	    -40.94733769	     72.72572592	     70.66744358	    100.30619085	    -11.79520129	    -47.01910497	     50.36208432	     82.79507953	     79.57582959
      1.63333330	      2.03693187	      1.41309891	     14.40061712	     -0.13744692	      0.99627749	      0.34784751	     -3.37666376	     -1.53394835	     -7.45613665	      3.76839271	      0.06577086	     11.15305710	     -2.53021970	     -7.49999984	     -5.74094091	     -2.09704607	    -20.78731208	      5.51427615	      0.09624227	     10.41960205	      5.92454582	     -7.49999984	     -3.43950282	      0.25998587	     -3.70865005	     20.10026371	    -40.83323722	     72.64270923	     70.31708713	    100.81374676	    -11.70113493	    -46.73633449	     50.46883661	     82.18144638	     79.89190925
      1.65000000	      2.03292216	      1.41974253	     14.41189800	     -0.14149996	      0.99981667	      0.35008401	     -3.37058501	     -1.51501492	     -7.45699837	      3.76082515	      0.06563878	     11.15331725	     -2.52961229	     -7.49999984	     -5.71273949	     -2.08309967	    -20.78968289	      5.50635253	      0.09610398	     10.42028363	      5.92358211	     -7.49999984	     -3.43275058	      0.26731947	     -3.70397267	     20.09830160	    -40.83813429	     72.64277901	     70.31706953	    100.81486251	    -11.71081116	    -46.73422130	     50.47343412	     82.18322652	     79.89287433
      1.66666670	      1.96685504	      1.42693341	     14.36191679	     -0.13709177	      0.99616144	      0.34780944	     -3.51883025	     -1.50719190	     -7.37422732	      3.37536464	      0.05891123	     11.09216833	     -2.41613487	     -7.49999984	     -5.68274003	     -2.01758916	    -20.85064194	      5.39850877	      0.09422175	     10.38287910	      5.90044862	     -7.49999984	     -3.31841541	      0.24568504	     -3.67431052	     20.07177569	    -40.83601033	     72.64199571	     70.30786957	    100.97055290	    -11.74841159	    -46.68062435	     50.50841169	     82.19626436	     79.97438504
      1.68333330	      1.97641762	      1.43520858	     14.38430984	     -0.14128294	      0.99643849	      0.35011658	     -3.49441190	     -1.49721604	     -7.37539102	      3.36266173	      0.05868952	     11.09360506	     -2.41556486	     -7.49999984	     -5.67604377	     -2.01499936	    -20.85461855	      5.39318497	      0.09412883	     10.38378359	      5.89787620	     -7.49999984	     -3.31136764	      0.25035494	     -3.66836183	     20.06914630	    -40.84293441	     72.64206633	     70.30709292	    100.97146813	    -11.75970798	    -46.67927610	     50.51285459	     82.19687449	     79.97518342
      1.70000000	      1.95666859	      1.33561300	     14.30776302	     -0.12963102	      0.99983324	      0.34418865	     -3.73925545	     -1.39474053	     -7.44158175	      2.93388029	      0.05120587	     11.07839369	     -2.18162253	     -7.49999984	     -5.76133349	     -2.05997053	    -21.00212843	      5.21521233	      0.09102263	     10.44196058	      5.97380476	     -7.49999984	     -3.10349369	      0.33691483	     -3.49299201	     19.85976203	    -40.99611645	     72.68839092	     70.36137303	     99.17902381	    -11.69761921	    -46.57827177	     50.75527046	     82.19747387	     79.38655783
      1.71666670	      1.94845523	      1.33358029	     14.33152106	     -0.13392628	      0.99993895	      0.34641796	     -3.83177565	     -1.39724744	     -7.45717806	      2.86385977	      0.04998378	     11.10095391	     -2.19271307	     -7.49999984	     -5.79097980	     -2.04889673	    -20.99227627	      5.23322014	      0.09133692	     10.36699044	      5.95521194	     -7.49999984	     -2.98105044	      0.39945992	     -3.43173355	     19.77830720	    -41.11477824	     72.68634602	     70.33892684	     99.23981279	    -11.92784901	    -46.51251547	     50.85464034	     82.22551038	     79.42657740
      1.73333330	      1.93307527	      1.28571331	     14.28306516	     -0.12953005	      0.99965158	      0.34395612	     -3.94379712	     -1.35948180	     -7.40596188	      2.71893564	      0.04745438	     11.11834627	     -2.15462304	     -7.49999984	     -5.84391685	     -2.04962505	    -20.95083030	      5.12670536	      0.08947789	     10.45116356	      5.91207090	     -7.49999984	     -2.82985431	      0.42817662	     -3.48048799	     19.70152969	    -41.05006074	     72.69572398	     70.32862985	     99.34547459	    -11.91891067	    -46.40541279	     50.85533252	     82.22413230	     79.49153084
      1.75000000	      1.95064275	      1.28798531	     14.30719777	     -0.13413337	      0.99983820	      0.34636542	     -4.01250759	     -1.36880449	     -7.40750680	      2.71049671	      0.04730709	     11.10462224	     -2.14637565	     -7.49999984	     -5.88550683	     -2.05336009	    -20.91512329	      5.16460224	      0.09013931	     10.40221271	      5.92278139	     -7.49999984	     -2.77415997	      0.48685878	     -3.40915045	     19.62550442	    -41.13837439	     72.69942257	     70.31375033	     99.39168466	    -12.13749397	    -46.40691530	     50.93993009	     82.20638567	     79.52134369
      1.76666670	      1.93186434	      1.27325425	     14.25138380	     -0.12935111	      0.99613023	      0.34385584	     -4.08048607	     -1.36569895	     -7.41364616	      2.60282981	      0.04542795	     11.11388408	     -2.14256302	     -7.49999984	     -5.90032009	     -2.02531150	    -20.95516903	      5.10822980	      0.08915543	     10.44058006	      5.89885879	     -7.49999984	     -2.77445194	      0.46899263	     -3.46816347	     19.58710724	    -41.12146097	     72.70958050	     70.32155520	     99.43343299	    -12.10944229	    -46.39967997	     50.92359630	     82.19836883	     79.54049328
      1.78333330	      1.95439848	      1.27109446	     14.30729494	     -0.13442807	      0.99967338	      0.34644404	     -4.13370293	     -1.37175531	     -7.39752075	      2.58177173	      0.04506042	     11.09975723	     -2.12327032	     -7.49999984	     -5.95212477	     -2.03901161	    -20.94019592	      5.14851940	      0.08985862	     10.44124894	      5.88877109	     -7.49999984	     -2.73032046	      0.48992084	     -3.43276126	     19.47651680	    -41.16608208	     72.72800599	     70.34522431	     99.47781675	    -12.29393839	    -46.38836506	     50.98586778	     82.18376973	     79.56638736
      1.80000000	      1.93756382	      1.25055849	     14.27172268	     -0.12965839	      1.00294398	      0.34383773	     -4.18636183	     -1.37203970	     -7.39737263	      2.59285061	      0.04525378	     11.09947740	     -2.12308660	     -7.49999984	     -5.93131781	     -2.03223939	    -20.94061555	      5.14945427	      0.08987493	     10.44366744	      5.88693478	     -7.49999984	     -2.73523791	      0.47945545	     -3.44030782	     19.47692101	    -41.15970224	     72.72752561	     70.34748644	     99.47987379	    -12.28353894	    -46.38827676	     50.98095142	     82.18325007	     79.56741451
